<?xml version="1.0" encoding="utf-8"?>
<!-- Generator: Adobe Illustrator 22.1.0, SVG Export Plug-In . SVG Version: 6.00 Build 0)  -->
<svg version="1.1" id="Capa_1" xmlns="http://www.w3.org/2000/svg" xmlns:xlink="http://www.w3.org/1999/xlink" x="0px" y="0px"
	 viewBox="0 0 512 512" style="enable-background:new 0 0 512 512;" xml:space="preserve">
<style type="text/css">
	.st0{fill:#FFCC00;}
	.st1{fill:#FFCE00;}
	.st2{fill:#F8F7F6;}
	.st3{fill:#EAEAEA;}
	.st4{fill:#484848;}
</style>
<polygon class="st0" points="312.1,464.4 199.9,464.4 191.9,504.5 320.1,504.5 "/>
<polygon class="st1" points="199.9,464.4 191.9,504.5 240,504.5 248,464.4 "/>
<path class="st2" d="M312.1,71.6H199.9c-26.6,0-48.1,21.5-48.1,48.1v304.6c0,26.6,21.5,48.1,48.1,48.1h112.2
	c26.6,0,48.1-21.5,48.1-48.1V119.7C360.2,93.2,338.7,71.6,312.1,71.6z"/>
<path class="st3" d="M223.9,424.3V119.7c0-26.6,21.5-48.1,48.1-48.1h-72.1c-26.6,0-48.1,21.5-48.1,48.1v304.6
	c0,26.6,21.5,48.1,48.1,48.1H272C245.5,472.4,223.9,450.9,223.9,424.3z"/>
<path class="st4" d="M327.6,66.3V15h8.5c4.1,0,7.5-3.4,7.5-7.5S340.3,0,336.2,0H175.8c-4.1,0-7.5,3.4-7.5,7.5s3.4,7.5,7.5,7.5h8.5
	v51.3c-23.1,6.7-40.1,28.1-40.1,53.4v304.6c0,27.5,20,50.3,46.2,54.8l-5.9,23.6c-0.6,2.2-0.1,4.6,1.4,6.4c1.4,1.8,3.6,2.9,5.9,2.9
	h128.3c2.3,0,4.5-1.1,5.9-2.9s1.9-4.2,1.4-6.4l-5.9-23.6c26.2-4.5,46.2-27.3,46.2-54.8V119.7C367.7,94.5,350.8,73.1,327.6,66.3z
	 M199.4,15h113.3v49.1c-0.2,0-0.3,0-0.5,0h-48.6V47.1H276c4.1,0,7.5-3.4,7.5-7.5s-3.4-7.5-7.5-7.5H236c-4.1,0-7.5,3.4-7.5,7.5
	s3.4,7.5,7.5,7.5h12.5v17.1h-48.6c-0.2,0-0.3,0-0.5,0L199.4,15L199.4,15z M312.1,464.9H248c-4.1,0-7.5,3.4-7.5,7.5s3.4,7.5,7.5,7.5
	h58.3l4.3,17.1h-109l4.3-17.1h10.2c4.1,0,7.5-3.4,7.5-7.5s-3.4-7.5-7.5-7.5h-16c-22.4,0-40.6-18.2-40.6-40.6V279.5h136.8
	c4.1,0,7.5-3.4,7.5-7.5s-3.4-7.5-7.5-7.5H159.3V119.7c0-22.4,18.2-40.6,40.6-40.6h112.2c22.4,0,40.6,18.2,40.6,40.6v144.8h-24.6
	c-4.1,0-7.5,3.4-7.5,7.5s3.4,7.5,7.5,7.5h24.6v144.8C352.7,446.7,334.5,464.9,312.1,464.9z"/>
</svg>
