<?xml version="1.0" encoding="utf-8"?>
<!-- Generator: Adobe Illustrator 22.1.0, SVG Export Plug-In . SVG Version: 6.00 Build 0)  -->
<svg version="1.1" id="Capa_1" xmlns="http://www.w3.org/2000/svg" xmlns:xlink="http://www.w3.org/1999/xlink" x="0px" y="0px"
	 viewBox="0 0 512 512" style="enable-background:new 0 0 512 512;" xml:space="preserve">
<style type="text/css">
	.st0{fill:#FFCC00;}
	.st1{fill:#B0BEC5;}
	.st2{fill:#F8F7F6;}
	.st3{fill:#484848;}
</style>
<path class="st0" d="M412.8,10.2c-23.5-13.4-52.4-13-75.6,0.9L65.6,125C25.8,141.6-0.1,180.5,0,223.6c0,5.9,4.8,10.7,10.7,10.7
	c0.5,0,1.1,0,1.6-0.1l426.7-64c5.2-0.8,9.1-5.3,9.1-10.6V73.9C448.5,47.9,435.1,23.6,412.8,10.2z"/>
<path class="st1" d="M202.7,170.3c-5.9,0-10.7-4.8-10.7-10.7c0-4.4,2.8-8.4,6.9-10l170.7-64c5.5-2.1,11.7,0.7,13.7,6.2
	c2.1,5.5-0.7,11.7-6.2,13.7l-170.7,64C205.2,170.1,203.9,170.3,202.7,170.3z"/>
<path class="st2" d="M74.7,148.9h362.7c41.2,0,74.7,33.4,74.7,74.7v213.3c0,41.2-33.4,74.7-74.7,74.7H74.7
	C33.4,511.6,0,478.2,0,436.9V223.6C0,182.4,33.4,148.9,74.7,148.9z"/>
<path class="st0" d="M501.3,255.6H416c-41.2,0-74.7,33.4-74.7,74.7s33.4,74.7,74.7,74.7h85.3c5.9,0,10.7-4.8,10.7-10.7v-128
	C512,260.4,507.2,255.6,501.3,255.6z"/>
<circle class="st2" cx="416" cy="330.3" r="32"/>
<path class="st3" d="M437.3,511.6H74.7C33.4,511.6,0,478.2,0,436.9V223.6c0-41.2,33.4-74.7,74.7-74.7h362.7
	c41.2,0,74.7,33.4,74.7,74.7v213.3C512,478.2,478.6,511.6,437.3,511.6z M74.7,170.3c-29.5,0-53.3,23.9-53.3,53.3v213.3
	c0,29.5,23.9,53.3,53.3,53.3h362.7c29.5,0,53.3-23.9,53.3-53.3V223.6c0-29.5-23.9-53.3-53.3-53.3L74.7,170.3L74.7,170.3z"/>
<path class="st3" d="M416,362.3c-17.7,0-32-14.3-32-32s14.3-32,32-32s32,14.3,32,32S433.7,362.3,416,362.3L416,362.3z M416,319.6
	c-5.9,0-10.7,4.8-10.7,10.7s4.8,10.7,10.7,10.7s10.7-4.8,10.7-10.7S421.9,319.6,416,319.6z"/>
<path class="st3" d="M501.3,404.9H416c-41.2,0-74.7-33.4-74.7-74.7s33.4-74.7,74.7-74.7h85.3c5.9,0,10.7,4.8,10.7,10.7v128
	C512,400.2,507.2,404.9,501.3,404.9z M416,276.9c-29.5,0-53.3,23.9-53.3,53.3c0,29.5,23.9,53.3,53.3,53.3h74.7V276.9H416z"/>
<path class="st3" d="M10.7,234.3c-5.9,0-10.7-4.8-10.7-10.7c-0.1-43.1,25.8-82,65.5-98.6L337.2,11.1c23.2-13.9,52.1-14.3,75.6-0.9
	c22.3,13.4,35.7,37.7,35.2,63.7v85.7c0,5.9-4.8,10.7-10.7,10.7s-10.7-4.8-10.7-10.7V73.9c0.5-18.4-8.9-35.7-24.6-45.3
	c-17.4-9.5-38.6-8.9-55.5,1.7L73.8,144.7C42,158,21.3,189.1,21.3,223.6C21.3,229.5,16.6,234.3,10.7,234.3z"/>
<path class="st3" d="M202.7,170.3c-5.9,0-10.7-4.8-10.7-10.7c0-4.4,2.8-8.4,6.9-10l170.7-64c5.5-2.1,11.7,0.7,13.7,6.2
	s-0.7,11.7-6.2,13.7c0,0,0,0,0,0l-170.7,64C205.2,170.1,203.9,170.3,202.7,170.3z"/>
</svg>
