<?xml version="1.0" encoding="utf-8"?>
<!-- Generator: Adobe Illustrator 22.1.0, SVG Export Plug-In . SVG Version: 6.00 Build 0)  -->
<svg version="1.1" id="Layer_1" xmlns="http://www.w3.org/2000/svg" xmlns:xlink="http://www.w3.org/1999/xlink" x="0px" y="0px"
	 viewBox="0 0 512 512" style="enable-background:new 0 0 512 512;" xml:space="preserve">
<style type="text/css">
	.st0{fill:none;}
	.st1{fill:#FFFFFF;}
</style>
<g id="Bounding_Boxes">
	<path class="st0" d="M244,244h24v24h-24V244z"/>
</g>
<path class="st1" d="M25.7,422.4h309.9c10.7,0,19.4-12.4,19.4-27.7v0c0-15.3-8.7-27.7-19.4-27.7H25.7C15,367,6.3,379.4,6.3,394.7v0
	C6.3,410,15,422.4,25.7,422.4z"/>
<path class="st1" d="M34.1,283.7h443.9c15.3,0,27.7-12.4,27.7-27.7v0c0-15.3-12.4-27.7-27.7-27.7H34.1c-15.3,0-27.7,12.4-27.7,27.7
	v0C6.3,271.3,18.8,283.7,34.1,283.7z"/>
<path class="st1" d="M6.3,117.3L6.3,117.3c0,15.3,12.4,27.7,27.7,27.7h443.9c15.3,0,27.7-12.4,27.7-27.7v0
	c0-15.3-12.4-27.7-27.7-27.7H34.1C18.8,89.6,6.3,102,6.3,117.3z"/>
</svg>
