<?xml version="1.0" encoding="utf-8"?>
<!-- Generator: Adobe Illustrator 22.1.0, SVG Export Plug-In . SVG Version: 6.00 Build 0)  -->
<svg version="1.1" id="Layer_1" xmlns="http://www.w3.org/2000/svg" xmlns:xlink="http://www.w3.org/1999/xlink" x="0px" y="0px"
	 viewBox="0 0 512 512" style="enable-background:new 0 0 512 512;" xml:space="preserve">
<style type="text/css">
	.st0{fill:#F8F7F6;}
	.st1{fill:#DADADA;}
	.st2{fill:#FFFFFF;}
	.st3{fill:#484848;}
	.st4{fill:#FFCC00;}
	.st5{fill:#FEFEFE;}
	.st6{fill:#50A6DC;}
</style>
<rect x="140.4" y="240" class="st0" width="23.7" height="161.4"/>
<path class="st1" d="M142.4,455.5c-11.4,0.2-22.9,0.2-34.3,0.9c-3.6,0.2-5-2.3-5-12.6c0.2-43.7,0.2-87.4,0-131c0-10.1,1.3-13,5-12.8
	c11.4,0.7,22.9,0.6,34.3,0.9C142.4,352.4,142.4,403.9,142.4,455.5z"/>
<g>
	<rect x="142.4" y="401.4" class="st2" width="268.6" height="50.9"/>
	<path class="st3" d="M88.8,415.6c1.2-7.2,3.9-13.5,10.2-17.8c1.9-1.3,1.6-3,1.6-4.8c0-12.8-0.1-25.5,0.1-38.3
		c0-2.7-0.5-4.8-2.9-6.2c-2.5-1.4-3.6-4.2-5.6-6c-2.6-4.9-3.3-10.3-3.6-15.8c0.1-5.4,0.2-10.8,0.4-16.2c0.2-7.6,3.3-13.9,9.3-18.7
		c1.3-1,2.5-1.8,2.5-3.9c-0.2-14.1-0.2-28.2-0.3-42.2c0.6-1.2-0.2-1.9-1-2.4c-3.6-2.4-6-5.9-8.3-9.3c-3.6-11.4-2.7-23.1-1.6-34.6
		c0.6-6.1,4.4-11.2,9.7-14.8c1.7-1.2,2.9-2.4,3.3-4.6c2.2-13.7,7.1-26.5,13.4-38.8c4.4-7,8.9-14,14.3-20.4c2.8-3.3,5.8-5.1,10.2-4.3
		c0.8,0.5,1.7,1,2.5,1.5c3.1,4.2,2.5,8.2-0.9,12c-2,2.3-4,4.8-5.8,7.3c-8.7,12.1-14.9,25.3-18.2,39.9c-0.6,2.7,0.2,3.5,2.8,3.4
		c7.9-0.2,15.7-0.2,23.6-0.3c1.1,0.1,2.3,0.2,3.4,0.2c57.8,0,115.5,0,173.3,0c23.6,0,47.3-0.1,70.9-0.2c0.6,0.2,0.8,0,0.7-0.6
		c-1.2-4.7-2.1-9.6-3.7-14.2c-10.8-29.5-30.3-51-59-64.1c-7.2-3.3-14.3-6.7-20.3-11.9C297,78.9,289.4,65.4,287,48.9
		c-0.3-2,0.1-4.6-3.6-4.5c-10.8,0.3-21.7,0.2-32.5,0.3c-7.7-0.1-15.4,0-23.1-0.3c-3.3-0.1-4.1,1.2-4.5,4.2
		c-2.5,18.9-11.7,33.7-27.3,44.6c-8.1,5.7-17.7,8.4-26,13.6c-4.3,2.7-8.3,2.5-11.9-1.1c-0.3-1.9-0.7-3.8-1-5.8c1-3.7,4.3-5.1,7.1-7
		c5.6-2.6,11.3-5,16.8-7.9c14.9-7.7,24.8-19.3,27.5-36.3c0-1.7,1.9-3.8-0.9-5.1c-3.8-1.8-4.2-5.1-4-8.7c0.6-1,1-2.4,1.9-2.8
		c6.1-2.6,3.6-7.8,4.1-12.2c0.2-1.7-1-2.2-2.2-2.8c-3.3-1.8-4.5-4.8-3.5-8.3c1-3.6,3.7-5.3,7.3-5.4c2.3-0.1,4.6,0,6.9,0
		c26.4,0,52.9,0,79.3,0c1.6,0,3.3-0.1,4.9,0.2c3.1,0.6,5.4,2.5,5.9,5.8c0.6,3.4-0.5,6.6-3.8,7.7c-3.5,1.2-3.4,3.3-2.9,6
		c-0.5,3.5-0.8,6.8,3.8,8.2c1.3,0.4,2.1,2.4,3.1,3.6c0.2,4-0.5,7.6-5,9c-1.7,0.5-1.8,1.4-1.6,2.9c3.1,17.9,12.2,31.1,29.2,38.4
		c3.7,2.4,7.7,4.3,11.8,5.9c14.5,8.1,27.5,18,38.4,30.6c3,4,5.9,8,8.9,12c8.8,14.3,15.2,29.7,18.1,46.3c0.3,1.6,0.9,2.8,2.6,3.2
		c3.5,2.4,6.4,5.3,8.8,8.8c1.2,3.2,3,6.2,3,9.7c0.1,7.4,0.2,14.7,0.1,22.1c-0.1,8.2-3.6,14.8-10.3,19.5c-1.5,1.1-2.6,2.1-2.5,4.3
		c0.2,7.3,0.2,14.7,0.2,22c0,5.9,0,11.9,0,17.8c-0.7,2.5,1.4,3,2.7,4.1c4.8,3.7,8.4,8.3,9.3,14.5c1.4,9.3,1.3,18.7,0.3,28
		c-0.7,6.1-3.7,11.4-8.8,14.8c-3.5,2.3-4.3,5-3.5,8.7c0,6.6,0,13.2,0,19.8c-0.1,5.1,0,10.1-0.3,15.2c-0.1,2.6,0.7,4.2,2.9,5.6
		c4.8,3.2,7.7,7.8,9.2,13.4c1.9,7.3,0.4,14.7,1.2,21.9c0,11.1-3.9,20-14.2,25.3c-1.3,0.7-1.5,2-2,3.2c-1.4,3.6-2.7,7.3-4.1,10.9
		c-8.2,14.3-19.5,25.2-35.1,31.1c-4.9,1.8-10.1,3-15.1,4.5c-4.9,0-9.9,0-14.8,0c-1.6-2.5-4.3-4.3-4.2-7.6c0.9-5,4-7.3,9-7.2
		c5.3,0.1,10.5-0.5,15.6-2.1c16.2-5,27.4-15.3,33.8-31.6c-2.4,0-4.2,0-6,0c-63.9,0-127.8,0-191.7,0c-16.3,0-32.5,0.2-48.8,0.2
		c-8.8,0-17.5,0-26.4,0c6.8,21.1,28,34.6,52,33.2c2,0.1,3.9,0.2,5.9,0.2c42.2,0,84.3,0.1,126.5-0.1c5.5,0,9.2,1.6,10.7,7.2
		c-0.5,3.7-2.8,6.1-6,7.7c-50.6,0-101.3,0-151.9,0c-0.2-1.1-1.2-1-1.9-1.1c-12.6-2.6-23.6-8.3-33.2-16.8c-2.8-3.2-5.7-6.5-8.5-9.7
		c-3.7-6.1-7.2-12.3-9.1-19.3c-0.4-1.5-1-3-2.6-4c-8.3-5-12-12.6-12.1-22C88.8,428.8,88.8,422.2,88.8,415.6z M250.9,29.5
		c8.5,0.1,16.9,0.2,25.4,0.2c10.4,0,10.4,0,9.9-10.7c0.2-0.7-0.1-0.9-0.7-0.8c-11.5,0-23,0-34.5,0c-6.4,0-12.7-0.1-19.1-0.1
		c-8,0-7.9,0-7.7,8.2c0.1,2.4,0.6,3.5,3.3,3.4C235.3,29.5,243.1,29.6,250.9,29.5z M155.2,247.2c-4.3,0-8.6,0-12.8,0
		c-7.9-0.1-15.7,0-23.6-0.2c-2.5-0.1-3.4,0.7-3.4,3.3c0.1,11.3,0.1,22.6,0,33.9c0,2.7,0.9,3.3,3.4,3.3c7.8-0.2,15.7-0.2,23.6-0.2
		c3.8,0.1,7.5,0,11.3,0.2c2.1,0.1,2.9-0.6,2.8-2.8c-0.2-12.2-0.2-24.5-0.3-36.7C156.2,247.1,155.8,247,155.2,247.2z M142.4,393.4
		c3.6,0.1,7.2,0.1,10.8,0.3c2.2,0.1,3.3-0.5,3.3-3c-0.1-11.2-0.1-22.3-0.1-33.5c0-1.3,0.1-2.8-1.9-2.6c-4.1,0.4-8-1.8-12.1-0.8
		c-7.9-0.1-15.7-0.1-23.6-0.2c-2.1,0-3.4,0.2-3.4,2.8c0.1,11.5,0.1,22.9,0.1,34.4c0,2.1,0.7,2.9,2.9,2.9
		C126.4,393.5,134.4,393.5,142.4,393.4z M394.8,376.2c0.1-6.6,0.1-13.1,0.2-19.7c0-1.9-0.3-3-2.6-3c-11.5,0.1-23,0.1-34.4,0
		c-2.1,0-2.9,0.8-2.9,2.8c0.1,11.5,0.1,23,0,34.4c0,2.1,0.8,2.9,2.9,2.9c6.4-0.2,12.8-0.2,19.2-0.3c4.9,0.1,9.8,0.1,14.6,0.3
		c2.6,0.1,3.4-0.9,3.3-3.4C394.8,385.6,394.8,380.9,394.8,376.2z M256.1,247C256.1,247,256.1,247,256.1,247
		c-26.6,0.1-53.2,0.1-79.9,0c-3.8,0-4.9,0.9-4.9,4.8c0.1,45.7,0.1,91.4-0.1,137.1c0,4.1,1.3,4.8,5,4.8c52.9-0.1,105.8-0.1,158.8,0.1
		c4.4,0,5.4-1.1,5.4-5.4c-0.2-45.5-0.2-91,0-136.6c0-4-1.1-4.9-4.9-4.8C309,247.1,282.5,247,256.1,247z M255.5,445
		C255.5,445,255.5,445,255.5,445c47.7,0.1,95.3,0.1,143,0.1c6.2,0,9-2.6,9.2-8.8c0.2-6.1,0.3-12.2,0.1-18.2c-0.2-6.4-3.6-9.5-10-9.5
		c-12.5,0-25,0-37.5,0c-82,0-164,0-246.1,0.1c-7.6,0-10.3,2.6-10.5,10.3c-0.1,5.6-0.2,11.2-0.1,16.8c0.2,6.8,2.9,9.3,9.7,9.3
		C160.8,445,208.2,445,255.5,445z M255.8,232.1C255.8,232.1,255.8,232.2,255.8,232.1c47.5,0.1,95,0.1,142.5,0.1
		c5.9,0,9.2-2.9,9.5-8.8c0.2-5.7,0.2-11.5,0.1-17.3c-0.1-7.7-3.1-10.6-10.8-10.6c-94.5,0-189,0-283.5,0c-6.4,0-9.5,3-9.7,9.6
		c-0.1,5.8-0.2,11.5-0.1,17.3c0.1,7,2.9,9.7,10,9.7C161.1,232.1,208.5,232.1,255.8,232.1z M132.2,338.7
		C132.2,338.7,132.2,338.7,132.2,338.7c6.9,0.1,13.8-0.1,20.7,0.1c2.8,0.1,3.7-0.8,3.6-3.6c-0.2-9.7-0.2-19.4,0-29.1
		c0.1-3.4-1.1-4.1-4.2-4c-13.1,0.2-26.3,0.1-39.4,0.1c-5.5,0-8.7,2.7-8.9,8.2c-0.3,6.7-0.3,13.5-0.1,20.2c0.2,5.4,3.5,8,9,8.1
		C119.4,338.7,125.8,338.7,132.2,338.7z M379.3,338.7C379.3,338.7,379.3,338.7,379.3,338.7c6.6,0,13.1,0.1,19.7,0
		c5.2,0,8.3-2.4,8.6-7.4c0.4-7.2,0.4-14.4,0.1-21.6c-0.2-4.6-3.7-7.5-8.1-7.5c-13.6-0.1-27.2,0-40.8-0.1c-2.6,0-3.8,0.5-3.7,3.5
		c0.2,9.8,0.2,19.7,0.1,29.5c0,2.7,0.8,3.7,3.6,3.6C365.6,338.6,372.5,338.7,379.3,338.7z M395,267.3c0-5.8-0.1-11.5,0-17.3
		c0.1-2.3-0.6-3.2-3-3.1c-11.3,0.1-22.7,0.1-34,0c-2.2,0-2.9,0.8-2.8,2.9c0,11.5,0.1,23-0.1,34.5c0,2.4,0.8,3.1,3.1,3
		c11.2-0.1,22.3-0.1,33.5,0c2.6,0,3.4-0.7,3.3-3.3C394.8,278.5,395,272.9,395,267.3z"/>
	<path class="st0" d="M250.9,44.7c10.8-0.1,21.7,0,32.5-0.3c3.7-0.1,3.4,2.4,3.6,4.5c2.3,16.5,10,30,22.6,40.8
		c6.1,5.2,13.2,8.6,20.3,11.9c28.6,13.1,48.2,34.6,59,64.1c1.7,4.6,2.5,9.5,3.7,14.2c-0.3,0.1-0.6,0.3-0.7,0.6
		c-23.6,0.1-47.3,0.2-70.9,0.2c-57.8,0-115.5,0-173.3,0c-1.1,0-2.3-0.1-3.4-0.2c5.2-29,19.8-52.2,42.5-70.7
		c10.1-8.3,22-13.4,33.5-19.3C239,81,248.2,65,250.9,44.7z"/>
	<path class="st2" d="M256.1,247c26.5,0,52.9,0.1,79.4-0.1c3.8,0,4.9,0.9,4.9,4.8c-0.1,45.5-0.1,91,0,136.6c0,4.3-1,5.5-5.4,5.4
		c-52.9-0.2-105.8-0.2-158.8-0.1c-3.7,0-5-0.7-5-4.8c0.2-45.7,0.2-91.4,0.1-137.1c0-3.9,1.1-4.9,4.9-4.8
		C202.8,247.1,229.4,247.1,256.1,247C256.1,247,256.1,247,256.1,247z M286.6,318.4c-3.9-5.4-7.9-10.7-10.2-17
		c3.8-3.5,3.6-7.3,1-11.5c-4.2-6.7-8.2-13.4-12.4-20.1c-5.4-8.6-13.1-8.5-18.5,0.2c-8.5,13.8-17,27.7-25.4,41.5
		c-4,6.5-6.6,13.5-6.8,21.3c-0.5,17.4,6.8,30.7,21.9,39c15.6,8.5,31.2,7.1,45.2-3.9c13.6-10.7,18.5-25,15.1-42
		C295.2,319.7,292.8,318,286.6,318.4z"/>
	<path class="st0" d="M255.8,232.1c-47.3,0-94.7,0-142,0c-7,0-9.8-2.7-10-9.7c-0.1-5.7-0.1-11.5,0.1-17.3c0.1-6.6,3.2-9.6,9.7-9.6
		c94.5,0,189,0,283.5,0c7.7,0,10.7,2.9,10.8,10.6c0.1,5.8,0.1,11.5-0.1,17.3c-0.3,5.9-3.5,8.8-9.5,8.8
		C350.8,232.2,303.3,232.2,255.8,232.1C255.8,232.2,255.8,232.1,255.8,232.1z"/>
	<path class="st4" d="M333.5,500.7c-6.5,0-12.9,0-19.4-0.1c-1.4-5.6-5.2-7.2-10.7-7.2c-42.2,0.1-84.3,0.1-126.5,0.1
		c-2,0-3.9-0.1-5.9-0.2c-0.9-1.7-2.6-2.4-4-3.4c-10.5-7.5-18-17.3-21.6-29.8c16.3-0.1,32.5-0.2,48.8-0.2c63.9,0,127.8,0,191.7,0
		c1.8,0,3.6,0,6,0c-6.4,16.3-17.6,26.6-33.8,31.6c-5,1.6-10.3,2.2-15.6,2.1C337.5,493.4,334.4,495.7,333.5,500.7z"/>
	<path class="st1" d="M250.9,44.7C248.2,65,239,81,220.4,90.4c-11.5,5.9-23.4,11-33.5,19.3c-22.7,18.5-37.3,41.7-42.5,70.7
		c-7.9,0.1-15.7,0.1-23.6,0.3c-2.7,0.1-3.5-0.7-2.8-3.4c3.4-14.5,9.5-27.8,18.2-39.9c1.8-2.5,3.7-5,5.8-7.3c3.3-3.8,3.9-7.8,0.9-12
		c4.5-4.8,9.5-9,15.1-12.4c3.7,3.7,7.6,3.9,11.9,1.1c8.3-5.2,17.9-7.9,26-13.6c15.6-10.9,24.8-25.8,27.3-44.6
		c0.4-2.9,1.2-4.3,4.5-4.2C235.5,44.8,243.2,44.7,250.9,44.7z"/>
	<path class="st0" d="M379.3,338.7c-6.9,0-13.8-0.1-20.7,0.1c-2.8,0.1-3.6-0.9-3.6-3.6c0.1-9.8,0.1-19.7-0.1-29.5
		c-0.1-2.9,1.1-3.5,3.7-3.5c13.6,0.1,27.2,0,40.8,0.1c4.4,0,7.9,2.9,8.1,7.5c0.3,7.2,0.3,14.4-0.1,21.6c-0.3,5-3.4,7.4-8.6,7.4
		C392.5,338.7,385.9,338.7,379.3,338.7C379.3,338.7,379.3,338.7,379.3,338.7z"/>
	<path class="st0" d="M395,267.3c0,5.6-0.1,11.2,0.1,16.8c0.1,2.6-0.7,3.4-3.3,3.3c-11.2-0.1-22.3-0.1-33.5,0c-2.3,0-3.2-0.6-3.1-3
		c0.1-11.5,0.1-23,0.1-34.5c0-2.1,0.7-2.9,2.8-2.9c11.3,0.1,22.7,0.1,34,0c2.4,0,3.1,0.8,3,3.1C394.9,255.8,395,261.6,395,267.3z"/>
	<path class="st0" d="M377.1,393.4c-6.4,0.1-12.8,0.1-19.2,0.3c-2.1,0.1-2.9-0.8-2.9-2.9c0.1-11.5,0.1-23,0-34.4
		c0-2.1,0.7-2.9,2.9-2.8c11.5,0.1,23,0.1,34.4,0c2.3,0,2.7,1.1,2.6,3c-0.1,6.6-0.1,13.1-0.2,19.7
		C387.7,380.7,382.3,386.9,377.1,393.4z"/>
	<path class="st1" d="M142.4,287.2c-7.9,0.1-15.7,0.1-23.6,0.2c-2.5,0.1-3.4-0.6-3.4-3.3c0.1-11.3,0.1-22.6,0-33.9
		c0-2.6,0.9-3.4,3.4-3.3c7.8,0.2,15.7,0.2,23.6,0.2C142.4,260.5,142.4,273.8,142.4,287.2z"/>
	<path class="st4" d="M145.3,460.1c3.6,12.5,11.1,22.3,21.6,29.8c1.4,1,3.1,1.8,4,3.4c-24,1.3-45.2-12.1-52-33.2
		C127.8,460.1,136.6,460.1,145.3,460.1z"/>
	<path class="st5" d="M164.1,92.9c0.7-5.3,5.8-7,8.7-10.5c4.6-5.5,9.8-10.6,15.2-15.4c6.8-6.1,12-14,20.3-18.4
		c-2.7,17-12.6,28.6-27.5,36.3C175.4,87.9,169.7,90.3,164.1,92.9z"/>
	<path class="st0" d="M250.9,18.2c11.5,0,23,0,34.5,0c0.2,0.3,0.5,0.5,0.7,0.8c0.5,10.7,0.5,10.7-9.9,10.7c-8.5,0-16.9-0.1-25.4-0.2
		C250.9,25.7,250.9,22,250.9,18.2z"/>
	<path class="st1" d="M250.9,18.2c0,3.7,0,7.5,0,11.2c-7.8,0.1-15.7,0.1-23.5,0.3c-2.7,0.1-3.2-1-3.3-3.4c-0.2-8.2-0.3-8.2,7.7-8.2
		C238.2,18.1,244.5,18.2,250.9,18.2z"/>
	<path class="st0" d="M377.1,393.4c5.2-6.4,10.6-12.6,17.7-17.2c0.1,4.7,0,9.4,0.2,14.1c0.1,2.5-0.6,3.5-3.3,3.4
		C386.9,393.5,382,393.5,377.1,393.4z"/>
	<path class="st5" d="M158,105.7c-5.6,3.4-10.6,7.7-15.1,12.4c-0.8-0.5-1.7-1-2.5-1.5c2.1-5,6.8-7.7,10.2-11.5
		c1.8-2,2.5-5.6,6.4-5.2C157.3,101.9,157.7,103.8,158,105.7z"/>
	<path class="st6" d="M286.2,19c-0.2-0.3-0.5-0.5-0.7-0.8C286.1,18.1,286.4,18.3,286.2,19z"/>
	<path class="st6" d="M392,180.5c0.1-0.3,0.3-0.5,0.7-0.6C392.8,180.5,392.6,180.7,392,180.5z"/>
	<path class="st6" d="M156.2,247.9c-0.3-0.2-0.6-0.5-0.9-0.7C155.8,247,156.2,247.1,156.2,247.9z"/>
	<path class="st3" d="M286.6,318.4c6.2-0.4,8.6,1.3,9.8,7.5c3.3,17-1.5,31.4-15.1,42c-14,11-29.6,12.4-45.2,3.9
		c-15.1-8.2-22.4-21.6-21.9-39c0.2-7.8,2.9-14.7,6.8-21.3c8.4-13.9,16.9-27.7,25.4-41.5c5.4-8.7,13.1-8.8,18.5-0.2
		c4.2,6.7,8.2,13.4,12.4,20.1c2.6,4.1,2.8,7.9-1,11.5c-5.8,2.2-8.3,1.5-11.6-3.6c-2.6-4-5-8.1-7.5-12.1c-0.6-1-1.3-2.9-2.5-0.4
		c-8.2,12.4-16.3,24.9-23.2,38.1c-5.5,10.4-2.6,23.7,6,31.5c9.1,8.3,21.1,9.7,31.2,3.6c10.7-5.8,15.9-17,13.3-29.5
		C281,324.1,282.1,320.7,286.6,318.4z"/>
	<path class="st4" d="M254.8,285.3c-0.2,13.2-2.2,26.3-3.7,39.3c-1.4,12,5.5,28.7,17.7,33.8c-10.1,6.1-22.1,4.7-31.2-3.6
		c-8.6-7.8-11.5-21.1-6-31.5C238.5,310.3,246.6,297.7,254.8,285.3z"/>
</g>
</svg>
