<?xml version="1.0" encoding="utf-8"?>
<!-- Generator: Adobe Illustrator 22.1.0, SVG Export Plug-In . SVG Version: 6.00 Build 0)  -->
<svg version="1.1" id="Layer_1" xmlns="http://www.w3.org/2000/svg" xmlns:xlink="http://www.w3.org/1999/xlink" x="0px" y="0px"
	 viewBox="0 0 512 512" style="enable-background:new 0 0 512 512;" xml:space="preserve">
<style type="text/css">
	.st0{fill:#F8F7F6;}
	.st1{fill:#EAEAEA;}
	.st2{fill:#FFCC00;}
	.st3{fill:#484848;}
</style>
<rect x="10.2" y="67.5" class="st0" width="377.1" height="377.1"/>
<polygon class="st1" points="10.2,57 385.3,57 387.3,180.6 124.4,443 6,443 "/>
<path class="st2" d="M496.3,89.6l-11.4-11.4c-7.3-7.3-19.2-7.3-26.6,0L423,113.5l38,38l35.3-35.3C503.6,108.8,503.6,96.9,496.3,89.6
	z"/>
<polygon class="st2" points="423,113.5 197.6,339 178.6,395.9 235.5,376.9 461,151.5 "/>
<g>
	<path class="st3" d="M394.5,117.1V60c0-5.6-4.6-10.2-10.2-10.2H7.2C1.6,49.8-3,54.3-3,60V437c0,5.6,4.6,10.2,10.2,10.2h377.1
		c5.6,0,10.2-4.6,10.2-10.2l0-215.1l106-106c5.5-5.5,8.5-12.8,8.5-20.5s-3-15-8.5-20.5l-11.4-11.4c-5.5-5.5-12.8-8.5-20.5-8.5
		s-15,3-20.5,8.5L394.5,117.1z M227,360.5l-35.3,11.8l11.8-35.3L420,120.4l23.5,23.5L227,360.5z M374.1,426.8H17.4V70.2h356.7v67.4
		L187.3,324.3c-1.1,1.1-2,2.5-2.5,4l-19,56.9c-1.2,3.7-0.3,7.7,2.5,10.4c1.9,1.9,4.6,3,7.2,3c1.1,0,2.2-0.2,3.2-0.5l56.9-19
		c1.5-0.5,2.9-1.3,4-2.5l134.3-134.3V426.8z M486.1,101.4L458,129.5l-11.8-11.8L434.5,106l28.1-28.1c1.6-1.6,3.8-2.5,6.1-2.5
		s4.5,0.9,6.1,2.5l11.4,11.4c0,0,0,0,0,0c1.6,1.6,2.5,3.8,2.5,6.1C488.6,97.7,487.7,99.8,486.1,101.4z"/>
	<path class="st3" d="M305.4,133.9h9.7c5.6,0,10.2-4.6,10.2-10.2s-4.6-10.2-10.2-10.2h-9.7c-5.6,0-10.2,4.6-10.2,10.2
		C295.2,129.3,299.8,133.9,305.4,133.9z"/>
	<path class="st3" d="M75.3,133.9h185.8c5.6,0,10.2-4.6,10.2-10.2s-4.6-10.2-10.2-10.2H75.3c-5.6,0-10.2,4.6-10.2,10.2
		C65.1,129.3,69.6,133.9,75.3,133.9z"/>
	<path class="st3" d="M75.3,193.3h176.1c5.6,0,10.2-4.6,10.2-10.2s-4.6-10.2-10.2-10.2H75.3c-5.6,0-10.2,4.6-10.2,10.2
		C65.1,188.8,69.6,193.3,75.3,193.3z"/>
	<path class="st3" d="M75.3,252.7h112.4c5.6,0,10.2-4.6,10.2-10.2s-4.6-10.2-10.2-10.2H75.3c-5.6,0-10.2,4.6-10.2,10.2
		S69.6,252.7,75.3,252.7z"/>
	<path class="st3" d="M139,290.7H75.3c-5.6,0-10.2,4.6-10.2,10.2c0,5.6,4.6,10.2,10.2,10.2H139c5.6,0,10.2-4.6,10.2-10.2
		C149.2,295.3,144.6,290.7,139,290.7z"/>
</g>
</svg>
