<?xml version="1.0" encoding="utf-8"?>
<!-- Generator: Adobe Illustrator 22.1.0, SVG Export Plug-In . SVG Version: 6.00 Build 0)  -->
<svg version="1.1" id="Capa_1" xmlns="http://www.w3.org/2000/svg" xmlns:xlink="http://www.w3.org/1999/xlink" x="0px" y="0px"
	 viewBox="0 0 406.8 406.8" style="enable-background:new 0 0 406.8 406.8;" xml:space="preserve">
<style type="text/css">
	.st0{fill:#F8F7F6;}
	.st1{fill:none;}
	.st2{fill:#FFCC00;}
	.st3{fill:#484848;}
</style>
<path class="st0" d="M382,302H22c-6.6,0-12-5.4-12-12V57c0-6.6,5.4-12,12-12h360c6.6,0,12,5.4,12,12v233
	C394,296.6,388.6,302,382,302z"/>
<g>
	<g>
		<path class="st1" d="M382.8,56.8H24v234.3h127h104.8h127V56.8z M343,99.7h-276v155.6c0,6.6-5.4,12-12,12c-6.6,0-12-5.4-12-12V87.7
			c0-6.6,5.4-12,12-12h288c6.6,0,12,5.4,12,12C355,94.3,349.6,99.7,343,99.7z"/>
		<rect x="163" y="315.1" class="st2" width="80.8" height="34.9"/>
		<path class="st3" d="M394.8,315.1c6.6,0,12-5.4,12-12V44.8c0-6.6-5.4-12-12-12H12c-6.6,0-12,5.4-12,12v258.3c0,6.6,5.4,12,12,12
			h127V350H12c-6.6,0-12,5.4-12,12s5.4,12,12,12h139h104.8h139c6.6,0,12-5.4,12-12s-5.4-12-12-12h-127v-34.9H394.8z M243.8,350H163
			v-34.9h80.8L243.8,350L243.8,350z M255.8,291.1H151H24V56.8h358.8v234.3H255.8z"/>
		<path class="st3" d="M343,75.7h-288c-6.6,0-12,5.4-12,12v167.6c0,6.6,5.4,12,12,12c6.6,0,12-5.4,12-12V99.7h276
			c6.6,0,12-5.4,12-12C355,81.1,349.6,75.7,343,75.7z"/>
	</g>
</g>
</svg>
