<?xml version="1.0" encoding="utf-8"?>
<!-- Generator: Adobe Illustrator 22.1.0, SVG Export Plug-In . SVG Version: 6.00 Build 0)  -->
<svg version="1.1" id="Layer_1" xmlns="http://www.w3.org/2000/svg" xmlns:xlink="http://www.w3.org/1999/xlink" x="0px" y="0px"
	 viewBox="0 0 512 512" style="enable-background:new 0 0 512 512;" xml:space="preserve">
<style type="text/css">
	.st0{fill:#FFFFFF;}
	.st1{display:none;fill:#D9D8D0;}
	.st2{fill:#FFCC00;}
	.st3{fill:#D9D8D0;}
	.st4{display:none;}
	.st5{display:inline;fill:#AFAFAF;}
	.st6{fill:#484848;}
</style>
<path class="st0" d="M362.9,401.4H72.2c-9.4,0-17.1-7.7-17.1-17.1V25.1C55,15.7,62.7,8,72.2,8h290.7c9.4,0,17.1,7.7,17.1,17.1v359.1
	C380,393.7,372.3,401.4,362.9,401.4z"/>
<path class="st1" d="M380,384.3v-83.7c-0.2,0-0.3,0.1-0.5,0.1c-6.8-5.6-15.3-9.3-24.7-10.2c-0.2,0-0.3,0-0.5,0V209
	c0-25.9-21.1-47-47-47h0c-1.6,0-3.2,0.1-4.8,0.2c-24.1,2.4-42.3,23.1-42.3,48v95l-18.4,18.4c-16.9,16.9-23.7,40.8-18.2,64l3.2,13.7
	h136C372.3,401.4,380,393.7,380,384.3z"/>
<circle class="st2" cx="132" cy="110.6" r="25.7"/>
<circle class="st2" cx="132" cy="204.7" r="25.7"/>
<circle class="st2" cx="132" cy="298.8" r="25.7"/>
<path class="st3" d="M437.8,333.1c-12.8-1.3-23.6,8.7-23.6,21.3V347c0-11.2-8-21.4-19.2-22.5c-12.8-1.3-23.6,8.7-23.6,21.3v-7.3
	c0-11.2-8-21.4-19.2-22.5c-12.8-1.3-23.6,8.7-23.6,21.3V209c0-12.5-10.8-22.5-23.6-21.3c-11.1,1.1-19.2,11.3-19.2,22.5v105.7
	L260,341.8c-10.5,10.5-14.8,25.6-11.4,40l17.9,76c6.4,27,30.5,46.1,58.3,46.1h72.3c33.1,0,59.9-26.8,59.9-59.9v-88.6
	C457,344.4,448.9,334.2,437.8,333.1z"/>
<g class="st4">
	<path class="st5" d="M337.2,358.1c4.7,0,8.6-3.8,8.6-8.6v-33.1c-9.7,2-17.1,10.5-17.1,20.8v12.3
		C328.7,354.2,332.5,358.1,337.2,358.1z"/>
	<path class="st5" d="M380,366.6c4.7,0,8.6-3.8,8.6-8.6V325c-9.7,2-17.1,10.5-17.1,20.8v12.3C371.4,362.8,375.3,366.6,380,366.6z"/>
	<path class="st5" d="M422.7,375.2c4.7,0,8.6-3.8,8.6-8.6v-33.1c-9.7,2-17.1,10.5-17.1,20.8v12.3C414.2,371.4,418,375.2,422.7,375.2
		z"/>
	<path class="st5" d="M287.9,457.8L268,373.6c-2.2-9.3,0.6-19.1,7.3-25.8l10.6-10.6v21.4c0,4.7,3.8,8.6,8.6,8.6s8.6-3.8,8.6-8.6
		V188.1c-10,2.1-17.1,11.6-17.1,22.1v105.7L260,341.8c-10.5,10.5-14.8,25.6-11.4,40l17.9,76c6.4,27,30.5,46.1,58.3,46.1h21.3
		C318.3,504,294.2,484.9,287.9,457.8z"/>
</g>
<path class="st6" d="M157.7,102.6c-4.4,0-8,3.6-8,8c0,9.7-7.9,17.6-17.6,17.6s-17.6-7.9-17.6-17.6S122.3,93,132,93c4.4,0,8-3.6,8-8
	c0-4.4-3.6-8-8-8c-18.6,0-33.7,15.1-33.7,33.7s15.1,33.7,33.7,33.7c18.6,0,33.7-15.1,33.7-33.7C165.7,106.2,162.1,102.6,157.7,102.6
	z"/>
<path class="st6" d="M157.7,196.7c-4.4,0-8,3.6-8,8c0,9.7-7.9,17.6-17.6,17.6s-17.6-7.9-17.6-17.6s7.9-17.6,17.6-17.6
	c4.4,0,8-3.6,8-8s-3.6-8-8-8c-18.6,0-33.7,15.1-33.7,33.7s15.1,33.7,33.7,33.7c18.6,0,33.7-15.1,33.7-33.7
	C165.7,200.3,162.1,196.7,157.7,196.7z"/>
<path class="st6" d="M251.7,213.8h-59.9c-4.4,0-8,3.6-8,8s3.6,8,8,8h59.9c4.4,0,8-3.6,8-8S256.2,213.8,251.7,213.8z"/>
<path class="st6" d="M251.7,179.6h-59.9c-4.4,0-8,3.6-8,8s3.6,8,8,8h59.9c4.4,0,8-3.6,8-8S256.2,179.6,251.7,179.6z"/>
<path class="st6" d="M242.6,315.9c0-4.4-3.6-8-8-8h-42.8c-4.4,0-8,3.6-8,8c0,4.4,3.6,8,8,8h42.8C239,323.9,242.6,320.3,242.6,315.9z
	"/>
<path class="st6" d="M251.7,273.6h-59.9c-4.4,0-8,3.6-8,8c0,4.4,3.6,8,8,8h59.9c4.4,0,8-3.6,8-8
	C259.7,277.2,256.2,273.6,251.7,273.6z"/>
<path class="st6" d="M336.7,127.7c0-4.4-3.6-8-8-8H191.9c-4.4,0-8,3.6-8,8c0,4.4,3.6,8,8,8h136.8
	C333.1,135.7,336.7,132.2,336.7,127.7z"/>
<path class="st6" d="M191.9,101.5h102.6c4.4,0,8-3.6,8-8c0-4.4-3.6-8-8-8H191.9c-4.4,0-8,3.6-8,8C183.9,98,187.4,101.5,191.9,101.5z
	"/>
<path class="st6" d="M132,281.1c4.4,0,8-3.6,8-8c0-4.4-3.6-8-8-8c-18.6,0-33.7,15.1-33.7,33.7c0,18.6,15.1,33.7,33.7,33.7
	c18.6,0,33.7-15.1,33.7-33.7c0-4.4-3.6-8-8-8c-4.4,0-8,3.6-8,8c0,9.7-7.9,17.6-17.6,17.6s-17.6-7.9-17.6-17.6
	C114.4,289,122.3,281.1,132,281.1z"/>
<path class="st6" d="M217.5,393.4H72.2c-5,0-9.1-4.1-9.1-9.1V25.1c0-5,4.1-9.1,9.1-9.1h290.7c5,0,9.1,4.1,9.1,9.1v265.1
	c0,4.4,3.6,8,8,8c4.4,0,8-3.6,8-8V25.1C388,11.3,376.7,0,362.9,0H72.2C58.3,0,47,11.3,47,25.1v359.1c0,13.9,11.3,25.1,25.1,25.1
	h145.4c4.4,0,8-3.6,8-8C225.5,396.9,221.9,393.4,217.5,393.4z"/>
<path class="st6" d="M438.6,325.1c-7.5-0.7-14.9,1.4-20.8,5.8c-4.7-7.9-12.7-13.5-22-14.4c-7.5-0.7-14.9,1.4-20.8,5.8
	c-4.7-7.9-12.7-13.5-22-14.4c-5.7-0.6-11.4,0.5-16.4,3.1V209c0-8.3-3.5-16.2-9.7-21.8c-6.1-5.6-14.4-8.3-22.7-7.4
	c-14.8,1.5-26.4,14.9-26.4,30.5v102.4l-23.6,23.6c-12.5,12.5-17.6,30.3-13.5,47.5l17.9,76c7.2,30.8,34.4,52.3,66.1,52.3h72.3
	c37.4,0,67.9-30.4,67.9-67.9v-88.6C465,340,453.4,326.6,438.6,325.1z M448.9,444.1c0,28.6-23.3,51.8-51.8,51.8h-72.3
	c-24.2,0-44.9-16.4-50.5-40l-17.9-76c-2.8-11.8,0.7-24,9.3-32.5l12.2-12.2v27.7c0,4.4,3.6,8,8,8c4.4,0,8-3.6,8-8V210.2
	c0-7.5,5.3-13.8,12-14.5c3.9-0.4,7.5,0.8,10.4,3.4c2.8,2.5,4.4,6.1,4.4,9.9v141.1c0,4.4,3.6,8,8,8c4.4,0,8-3.6,8-8v-12.8
	c0-3.8,1.6-7.4,4.4-9.9c2.8-2.6,6.5-3.8,10.4-3.4c6.7,0.7,12,7,12,14.5v20.2c0,4.4,3.6,8,8,8c4.4,0,8-3.6,8-8v-12.8
	c0-3.8,1.6-7.4,4.4-9.9c2.8-2.6,6.5-3.8,10.4-3.4c6.7,0.7,12,7,12,14.5v20.2c0,4.4,3.6,8,8,8c4.4,0,8-3.6,8-8v-12.8
	c0-3.8,1.6-7.4,4.4-9.9c2.8-2.6,6.5-3.8,10.4-3.4c6.7,0.7,12,7,12,14.5L448.9,444.1L448.9,444.1z"/>
</svg>
