<?xml version="1.0" encoding="utf-8"?>
<!-- Generator: Adobe Illustrator 22.1.0, SVG Export Plug-In . SVG Version: 6.00 Build 0)  -->
<svg version="1.1" id="Layer_1" xmlns="http://www.w3.org/2000/svg" xmlns:xlink="http://www.w3.org/1999/xlink" x="0px" y="0px"
	 viewBox="0 0 512 512" style="enable-background:new 0 0 512 512;" xml:space="preserve">
<style type="text/css">
	.st0{fill:#F8F7F6;}
	.st1{fill:#FFCC00;}
	.st2{fill:#484848;}
</style>
<path class="st0" d="M418.9,173.1c0,153.5-162.9,268.2-162.9,268.2S93.1,326.7,93.1,173.1c0-90,72.9-162.9,162.9-162.9
	S418.9,83.1,418.9,173.1z"/>
<circle class="st1" cx="256" cy="173.1" r="71.5"/>
<g>
	<path class="st2" d="M369.5,377.5c-5.6-0.7-10.7,3.2-11.4,8.8c-0.7,5.6,3.2,10.7,8.8,11.4c2.9,0.4,5.8,0.8,8.7,1.2
		c0.5,0.1,1,0.1,1.5,0.1c5,0,9.4-3.7,10.1-8.8c0.8-5.6-3.1-10.7-8.7-11.5C375.5,378.3,372.5,377.9,369.5,377.5z"/>
	<path class="st2" d="M417.6,385.7c-5.5-1.2-10.9,2.3-12.1,7.8s2.3,10.9,7.8,12.1c59.8,12.9,75.5,29,75.5,35.7
		c0,6.3-13.4,20.4-63.5,32.9c-45.1,11.2-105.3,17.4-169.4,17.4s-124.3-6.2-169.4-17.4c-50.1-12.5-63.5-26.5-63.5-32.9
		c0-6.1,11.1-17,42.4-27.2c30.1-9.9,73-17.2,121.1-20.7c33.4,34.9,62.1,55.3,63.5,56.3c1.8,1.2,3.8,1.9,5.9,1.9
		c2.1,0,4.1-0.6,5.9-1.9c1.7-1.2,42.3-30,83.4-78.3c24.2-28.5,43.6-57.8,57.5-87.3c17.5-37.1,26.4-74.5,26.4-111
		C429.1,77.7,351.5,0,256,0S82.9,77.7,82.9,173.1c0,36.5,8.9,73.9,26.4,111c13.9,29.4,33.2,58.8,57.5,87.3c0.8,1,1.7,2,2.5,2.9
		c-43.6,4-81.4,10.9-110.1,20.4c-37.5,12.3-56.5,28-56.5,46.6c0,21.9,26.6,39.6,78.9,52.7c46.7,11.6,108.6,18,174.3,18
		s127.6-6.4,174.3-18c52.4-13,78.9-30.8,78.9-52.7C509.3,417.6,478.4,398.9,417.6,385.7z M103.3,173.1
		c0-84.2,68.5-152.7,152.7-152.7s152.7,68.5,152.7,152.7c0,76-42.8,142.4-78.7,184.7c-30.5,36-61.4,61.1-74,70.8
		c-12.5-9.6-43.2-34.6-73.7-70.4C146.3,315.8,103.3,249.3,103.3,173.1z"/>
	<path class="st2" d="M256,254.8c45.1,0,81.7-36.7,81.7-81.7S301.1,91.4,256,91.4s-81.7,36.7-81.7,81.7S210.9,254.8,256,254.8z
		 M256,111.8c33.8,0,61.3,27.5,61.3,61.3s-27.5,61.3-61.3,61.3s-61.3-27.5-61.3-61.3S222.2,111.8,256,111.8z"/>
</g>
</svg>
