<?xml version="1.0" encoding="utf-8"?>
<!-- Generator: Adobe Illustrator 22.1.0, SVG Export Plug-In . SVG Version: 6.00 Build 0)  -->
<svg version="1.1" id="Capa_1" xmlns="http://www.w3.org/2000/svg" xmlns:xlink="http://www.w3.org/1999/xlink" x="0px" y="0px"
	 viewBox="0 0 512 512" style="enable-background:new 0 0 512 512;" xml:space="preserve">
<style type="text/css">
	.st0{fill:#607D8B;}
	.st1{fill:#FFCC00;}
	.st2{fill:#F8F7F6;}
	.st3{fill:#FAFAFA;}
	.st4{fill:#EAEAEA;}
	.st5{fill:#FFE082;}
	.st6{fill:#484848;}
</style>
<path class="st0" d="M277.3,469.3h-42.7c-5.9,0-10.7-4.8-10.7-10.7s4.8-10.7,10.7-10.7h42.7c100.1-0.1,181.2-81.2,181.3-181.3v-64
	c0-5.9,4.8-10.7,10.7-10.7s10.7,4.8,10.7,10.7v64C479.9,378.5,389.2,469.2,277.3,469.3z"/>
<path class="st1" d="M298.7,373.3H128c-5.9,0-10.7,4.8-10.7,10.7v74.7c0,29.5,23.9,53.3,53.3,53.3H256c29.5,0,53.3-23.9,53.3-53.3
	V384C309.3,378.1,304.6,373.3,298.7,373.3z"/>
<path class="st2" d="M213.3,0C101.4,0,10.7,90.7,10.7,202.7s90.7,202.7,202.7,202.7S416,314.6,416,202.7
	C415.9,90.8,325.2,0.1,213.3,0z"/>
<circle class="st3" cx="213.3" cy="202.7" r="32"/>
<path class="st4" d="M213.3,384C113.2,384,32,302.8,32,202.7S113.7,11.6,213.3,21.3"/>
<path class="st5" d="M64,213.3c-5.9,0-10.7-4.8-10.7-10.7c0.1-88.3,71.7-159.9,160-160c5.9,0,10.7,4.8,10.7,10.7S219.2,64,213.3,64
	c-76.5,0.1-138.6,62.1-138.7,138.7C74.7,208.6,69.9,213.3,64,213.3z"/>
<path class="st1" d="M469.3,128c-17.9,0-32,18.7-32,42.7s14.1,42.7,32,42.7s32-18.7,32-42.7S487.3,128,469.3,128z"/>
<path class="st6" d="M213.3,405.3c-111.9,0-202.7-90.7-202.7-202.7S101.4,0,213.3,0S416,90.7,416,202.7
	C415.9,314.5,325.2,405.2,213.3,405.3z M213.3,21.3C113.2,21.3,32,102.5,32,202.7S113.2,384,213.3,384s181.3-81.2,181.3-181.3
	C394.5,102.6,313.4,21.5,213.3,21.3z"/>
<path class="st6" d="M213.3,234.7c-17.7,0-32-14.3-32-32s14.3-32,32-32s32,14.3,32,32S231,234.7,213.3,234.7z M213.3,192
	c-5.9,0-10.7,4.8-10.7,10.7s4.8,10.7,10.7,10.7c5.9,0,10.7-4.8,10.7-10.7S219.2,192,213.3,192z"/>
<path class="st6" d="M64,213.3c-5.9,0-10.7-4.8-10.7-10.7c0.1-88.3,71.7-159.9,160-160c5.9,0,10.7,4.8,10.7,10.7S219.2,64,213.3,64
	c-76.5,0.1-138.6,62.1-138.7,138.7C74.7,208.6,69.9,213.3,64,213.3z"/>
<path class="st6" d="M256,512h-85.3c-29.5,0-53.3-23.9-53.3-53.3V384c0-5.9,4.8-10.7,10.7-10.7c5.9,0,10.7,4.8,10.7,10.7v74.7
	c0,17.7,14.3,32,32,32H256c17.7,0,32-14.3,32-32V384c0-5.9,4.8-10.7,10.7-10.7s10.7,4.8,10.7,10.7v74.7
	C309.3,488.1,285.5,512,256,512z"/>
<path class="st6" d="M277.3,469.3h-42.7c-5.9,0-10.7-4.8-10.7-10.7s4.8-10.7,10.7-10.7h42.7c100.1-0.1,181.2-81.2,181.3-181.3v-64
	c0-5.9,4.8-10.7,10.7-10.7s10.7,4.8,10.7,10.7v64C479.9,378.5,389.2,469.2,277.3,469.3z"/>
<path class="st6" d="M469.3,213.3c-17.9,0-32-18.7-32-42.7s14.1-42.7,32-42.7s32,18.7,32,42.7S487.3,213.3,469.3,213.3z
	 M469.3,149.3c-4.3,0-10.7,8.3-10.7,21.3s6.4,21.3,10.7,21.3s10.7-8.3,10.7-21.3S473.6,149.3,469.3,149.3z"/>
</svg>
