<?xml version="1.0" encoding="utf-8"?>
<!-- Generator: Adobe Illustrator 22.1.0, SVG Export Plug-In . SVG Version: 6.00 Build 0)  -->
<svg version="1.1" id="Capa_1" xmlns="http://www.w3.org/2000/svg" xmlns:xlink="http://www.w3.org/1999/xlink" x="0px" y="0px"
	 viewBox="0 0 512 512" style="enable-background:new 0 0 512 512;" xml:space="preserve">
<style type="text/css">
	.st0{fill:#EAEAEA;}
	.st1{fill:#F8F7F6;}
	.st2{fill:#FFCC00;}
	.st3{fill:#FFFFFF;}
	.st4{fill:#484848;}
</style>
<g>
	<circle class="st0" cx="256" cy="130.2" r="121.5"/>
	<ellipse class="st1" cx="243" cy="130.2" rx="108.5" ry="121.5"/>
	<circle class="st2" cx="212.6" cy="95.5" r="26"/>
	<path class="st3" d="M256,251.7c2.3,0,4.6-0.2,6.9-0.3c-57-3.6-102.3-56.4-102.3-121.1S205.8,12.6,262.9,9
		c-2.3-0.1-4.6-0.3-6.9-0.3c-67.1,0-121.5,54.4-121.5,121.5S188.9,251.7,256,251.7L256,251.7z"/>
	<g>
		<path class="st4" d="M256,260.3c-71.9,0-130.2-58.3-130.2-130.2S184.1,0,256,0s130.2,58.3,130.2,130.2
			C386.1,202,327.9,260.3,256,260.3z M256,17.4c-62.3,0-112.8,50.5-112.8,112.8S193.7,243,256,243s112.8-50.5,112.8-112.8
			C368.7,67.9,318.3,17.4,256,17.4z"/>
		<path class="st4" d="M212.6,130.2c-19.2,0-34.7-15.5-34.7-34.7s15.5-34.7,34.7-34.7s34.7,15.5,34.7,34.7
			C247.3,114.6,231.8,130.1,212.6,130.2L212.6,130.2z M212.6,78.1c-9.6,0-17.4,7.8-17.4,17.4s7.8,17.4,17.4,17.4S230,105,230,95.5
			C230,85.9,222.2,78.1,212.6,78.1L212.6,78.1z"/>
		<path class="st4" d="M256,512c-2.3,0-4.5-0.9-6.1-2.5c-1.6-1.6-2.5-3.8-2.5-6.1V251.7c0-4.8,3.9-8.7,8.7-8.7s8.7,3.9,8.7,8.7
			v251.7c0,2.3-0.9,4.5-2.5,6.1C260.5,511.1,258.3,512,256,512L256,512z"/>
	</g>
</g>
</svg>
